<svg xmlns="http://www.w3.org/2000/svg" fill="#e83e8c" width="32" height="32" viewBox="0 0 61.44 61.67"><path class="a" d="M1.28,45.25V56.6a6,6,0,0,0,6,6H18.64A27.07,27.07,0,0,1,8,55.93,25.6,25.6,0,0,1,1.28,45.25Z" transform="translate(-1.28 -1.17)"/><path class="a" d="M28,7.85a27.08,27.08,0,0,1,19.37,7.79L52,20.31,41.35,31,36.9,26.55A13.24,13.24,0,0,0,28,23a12.91,12.91,0,1,0,0,25.82,13.24,13.24,0,0,0,8.9-3.56L62.72,19.42V7.18a6,6,0,0,0-6-6H7.29a6.33,6.33,0,0,0-6,6.23V26.77A28.27,28.27,0,0,1,28,7.85Z" transform="translate(-1.28 -1.17)"/><path class="a" d="M47.36,56.6a27,27,0,0,1-10.24,6.23H56.49a6,6,0,0,0,6-6V41.46Z" transform="translate(-1.28 -1.17)"/></svg>